<mxfile host="app.diagrams.net" modified="2023-05-18T09:07:36.125Z" agent="Mozilla/5.0 (Windows NT 10.0; Win64; x64) AppleWebKit/537.36 (KHTML, like Gecko) Chrome/112.0.0.0 Safari/537.36 OPR/98.0.0.0" etag="vRghT3rNMNJt2Pjt8cl4" version="21.2.9" type="github">
  <diagram name="Page-1" id="kiIUahFWZ84-yVQ-otkS">
    <mxGraphModel dx="2022" dy="1827" grid="1" gridSize="10" guides="1" tooltips="1" connect="1" arrows="1" fold="1" page="1" pageScale="1" pageWidth="827" pageHeight="1169" math="0" shadow="0">
      <root>
        <mxCell id="0" />
        <mxCell id="1" parent="0" />
        <mxCell id="5uqwfvLCXKu4Hqc6w1ec-17" style="edgeStyle=orthogonalEdgeStyle;rounded=0;orthogonalLoop=1;jettySize=auto;html=1;exitX=0;exitY=0.5;exitDx=0;exitDy=0;entryX=1;entryY=0.5;entryDx=0;entryDy=0;" parent="1" source="5uqwfvLCXKu4Hqc6w1ec-5" target="5uqwfvLCXKu4Hqc6w1ec-12" edge="1">
          <mxGeometry relative="1" as="geometry" />
        </mxCell>
        <mxCell id="5uqwfvLCXKu4Hqc6w1ec-24" style="edgeStyle=orthogonalEdgeStyle;rounded=0;orthogonalLoop=1;jettySize=auto;html=1;exitX=0.5;exitY=1;exitDx=0;exitDy=0;entryX=0.5;entryY=0;entryDx=0;entryDy=0;" parent="1" source="5uqwfvLCXKu4Hqc6w1ec-5" target="5uqwfvLCXKu4Hqc6w1ec-9" edge="1">
          <mxGeometry relative="1" as="geometry" />
        </mxCell>
        <mxCell id="5uqwfvLCXKu4Hqc6w1ec-25" style="edgeStyle=orthogonalEdgeStyle;rounded=0;orthogonalLoop=1;jettySize=auto;html=1;exitX=1;exitY=0.5;exitDx=0;exitDy=0;" parent="1" source="5uqwfvLCXKu4Hqc6w1ec-5" target="5uqwfvLCXKu4Hqc6w1ec-11" edge="1">
          <mxGeometry relative="1" as="geometry" />
        </mxCell>
        <mxCell id="5uqwfvLCXKu4Hqc6w1ec-5" value="Planète" style="rounded=0;whiteSpace=wrap;html=1;" parent="1" vertex="1">
          <mxGeometry x="1390" y="425" width="120" height="60" as="geometry" />
        </mxCell>
        <mxCell id="5uqwfvLCXKu4Hqc6w1ec-9" value="Chantier Spatial" style="rounded=0;whiteSpace=wrap;html=1;" parent="1" vertex="1">
          <mxGeometry x="1390" y="555" width="120" height="60" as="geometry" />
        </mxCell>
        <mxCell id="5uqwfvLCXKu4Hqc6w1ec-11" value="Flotte" style="rounded=0;whiteSpace=wrap;html=1;" parent="1" vertex="1">
          <mxGeometry x="1580" y="425" width="120" height="60" as="geometry" />
        </mxCell>
        <mxCell id="5uqwfvLCXKu4Hqc6w1ec-18" style="edgeStyle=orthogonalEdgeStyle;rounded=0;orthogonalLoop=1;jettySize=auto;html=1;exitX=0;exitY=0.5;exitDx=0;exitDy=0;entryX=1;entryY=0.5;entryDx=0;entryDy=0;" parent="1" source="5uqwfvLCXKu4Hqc6w1ec-12" target="5uqwfvLCXKu4Hqc6w1ec-14" edge="1">
          <mxGeometry relative="1" as="geometry" />
        </mxCell>
        <mxCell id="5uqwfvLCXKu4Hqc6w1ec-19" style="edgeStyle=orthogonalEdgeStyle;rounded=0;orthogonalLoop=1;jettySize=auto;html=1;exitX=0.5;exitY=0;exitDx=0;exitDy=0;entryX=1;entryY=0.5;entryDx=0;entryDy=0;" parent="1" source="5uqwfvLCXKu4Hqc6w1ec-12" target="5uqwfvLCXKu4Hqc6w1ec-15" edge="1">
          <mxGeometry relative="1" as="geometry">
            <mxPoint x="1250" y="395" as="targetPoint" />
          </mxGeometry>
        </mxCell>
        <mxCell id="5uqwfvLCXKu4Hqc6w1ec-20" style="edgeStyle=orthogonalEdgeStyle;rounded=0;orthogonalLoop=1;jettySize=auto;html=1;exitX=0.5;exitY=1;exitDx=0;exitDy=0;entryX=1;entryY=0.5;entryDx=0;entryDy=0;" parent="1" source="5uqwfvLCXKu4Hqc6w1ec-12" target="5uqwfvLCXKu4Hqc6w1ec-13" edge="1">
          <mxGeometry relative="1" as="geometry" />
        </mxCell>
        <mxCell id="5uqwfvLCXKu4Hqc6w1ec-12" value="Infrastructure" style="rounded=0;whiteSpace=wrap;html=1;" parent="1" vertex="1">
          <mxGeometry x="1220" y="425" width="120" height="60" as="geometry" />
        </mxCell>
        <mxCell id="5uqwfvLCXKu4Hqc6w1ec-13" value="Défense" style="rounded=0;whiteSpace=wrap;html=1;" parent="1" vertex="1">
          <mxGeometry x="1060" y="505" width="120" height="60" as="geometry" />
        </mxCell>
        <mxCell id="5uqwfvLCXKu4Hqc6w1ec-14" value="Minier" style="rounded=0;whiteSpace=wrap;html=1;" parent="1" vertex="1">
          <mxGeometry x="1060" y="425" width="120" height="60" as="geometry" />
        </mxCell>
        <mxCell id="5uqwfvLCXKu4Hqc6w1ec-15" value="Installations" style="rounded=0;whiteSpace=wrap;html=1;" parent="1" vertex="1">
          <mxGeometry x="1060" y="345" width="120" height="60" as="geometry" />
        </mxCell>
        <mxCell id="5uqwfvLCXKu4Hqc6w1ec-32" value="Utilisateur" style="swimlane;fontStyle=0;childLayout=stackLayout;horizontal=1;startSize=30;horizontalStack=0;resizeParent=1;resizeParentMax=0;resizeLast=0;collapsible=1;marginBottom=0;whiteSpace=wrap;html=1;" parent="1" vertex="1">
          <mxGeometry x="250" y="-350" width="140" height="120" as="geometry">
            <mxRectangle x="275" y="-230" width="90" height="30" as="alternateBounds" />
          </mxGeometry>
        </mxCell>
        <mxCell id="5uqwfvLCXKu4Hqc6w1ec-33" value="id" style="text;strokeColor=none;fillColor=none;align=left;verticalAlign=middle;spacingLeft=4;spacingRight=4;overflow=hidden;points=[[0,0.5],[1,0.5]];portConstraint=eastwest;rotatable=0;whiteSpace=wrap;html=1;fontStyle=4" parent="5uqwfvLCXKu4Hqc6w1ec-32" vertex="1">
          <mxGeometry y="30" width="140" height="30" as="geometry" />
        </mxCell>
        <mxCell id="5uqwfvLCXKu4Hqc6w1ec-34" value="email" style="text;strokeColor=none;fillColor=none;align=left;verticalAlign=middle;spacingLeft=4;spacingRight=4;overflow=hidden;points=[[0,0.5],[1,0.5]];portConstraint=eastwest;rotatable=0;whiteSpace=wrap;html=1;" parent="5uqwfvLCXKu4Hqc6w1ec-32" vertex="1">
          <mxGeometry y="60" width="140" height="30" as="geometry" />
        </mxCell>
        <mxCell id="5uqwfvLCXKu4Hqc6w1ec-35" value="password" style="text;strokeColor=none;fillColor=none;align=left;verticalAlign=middle;spacingLeft=4;spacingRight=4;overflow=hidden;points=[[0,0.5],[1,0.5]];portConstraint=eastwest;rotatable=0;whiteSpace=wrap;html=1;" parent="5uqwfvLCXKu4Hqc6w1ec-32" vertex="1">
          <mxGeometry y="90" width="140" height="30" as="geometry" />
        </mxCell>
        <mxCell id="5uqwfvLCXKu4Hqc6w1ec-37" value="Univers" style="swimlane;fontStyle=0;childLayout=stackLayout;horizontal=1;startSize=30;horizontalStack=0;resizeParent=1;resizeParentMax=0;resizeLast=0;collapsible=1;marginBottom=0;whiteSpace=wrap;html=1;" parent="1" vertex="1">
          <mxGeometry x="250" y="30" width="140" height="90" as="geometry">
            <mxRectangle x="250" y="30" width="90" height="30" as="alternateBounds" />
          </mxGeometry>
        </mxCell>
        <mxCell id="5uqwfvLCXKu4Hqc6w1ec-38" value="id" style="text;strokeColor=none;fillColor=none;align=left;verticalAlign=middle;spacingLeft=4;spacingRight=4;overflow=hidden;points=[[0,0.5],[1,0.5]];portConstraint=eastwest;rotatable=0;whiteSpace=wrap;html=1;fontStyle=4" parent="5uqwfvLCXKu4Hqc6w1ec-37" vertex="1">
          <mxGeometry y="30" width="140" height="30" as="geometry" />
        </mxCell>
        <mxCell id="5uqwfvLCXKu4Hqc6w1ec-39" value="nom" style="text;strokeColor=none;fillColor=none;align=left;verticalAlign=middle;spacingLeft=4;spacingRight=4;overflow=hidden;points=[[0,0.5],[1,0.5]];portConstraint=eastwest;rotatable=0;whiteSpace=wrap;html=1;" parent="5uqwfvLCXKu4Hqc6w1ec-37" vertex="1">
          <mxGeometry y="60" width="140" height="30" as="geometry" />
        </mxCell>
        <mxCell id="5uqwfvLCXKu4Hqc6w1ec-48" style="edgeStyle=orthogonalEdgeStyle;rounded=0;orthogonalLoop=1;jettySize=auto;html=1;exitX=0.5;exitY=1;exitDx=0;exitDy=0;endArrow=none;endFill=0;" parent="1" source="5uqwfvLCXKu4Hqc6w1ec-44" target="5uqwfvLCXKu4Hqc6w1ec-37" edge="1">
          <mxGeometry relative="1" as="geometry" />
        </mxCell>
        <mxCell id="5uqwfvLCXKu4Hqc6w1ec-50" style="edgeStyle=orthogonalEdgeStyle;rounded=0;orthogonalLoop=1;jettySize=auto;html=1;exitX=0.5;exitY=0;exitDx=0;exitDy=0;endArrow=none;endFill=0;entryX=0.491;entryY=0.995;entryDx=0;entryDy=0;entryPerimeter=0;" parent="1" source="5uqwfvLCXKu4Hqc6w1ec-44" target="5uqwfvLCXKu4Hqc6w1ec-35" edge="1">
          <mxGeometry relative="1" as="geometry">
            <mxPoint x="320" y="-200" as="targetPoint" />
          </mxGeometry>
        </mxCell>
        <mxCell id="5uqwfvLCXKu4Hqc6w1ec-44" value="" style="ellipse;whiteSpace=wrap;html=1;" parent="1" vertex="1">
          <mxGeometry x="260" y="-130" width="120" height="80" as="geometry" />
        </mxCell>
        <mxCell id="5uqwfvLCXKu4Hqc6w1ec-51" value="1,N" style="text;html=1;strokeColor=none;fillColor=none;align=center;verticalAlign=middle;whiteSpace=wrap;rounded=0;" parent="1" vertex="1">
          <mxGeometry x="310" y="-190" width="60" height="30" as="geometry" />
        </mxCell>
        <mxCell id="5uqwfvLCXKu4Hqc6w1ec-52" value="1,N" style="text;html=1;strokeColor=none;fillColor=none;align=center;verticalAlign=middle;whiteSpace=wrap;rounded=0;" parent="1" vertex="1">
          <mxGeometry x="310" width="60" height="30" as="geometry" />
        </mxCell>
        <mxCell id="H8S7PLvkENnry8t2hhdn-3" style="edgeStyle=orthogonalEdgeStyle;rounded=0;orthogonalLoop=1;jettySize=auto;html=1;exitX=0.5;exitY=0;exitDx=0;exitDy=0;entryX=0;entryY=0.5;entryDx=0;entryDy=0;" parent="1" source="5uqwfvLCXKu4Hqc6w1ec-53" target="5uqwfvLCXKu4Hqc6w1ec-125" edge="1">
          <mxGeometry relative="1" as="geometry" />
        </mxCell>
        <mxCell id="5uqwfvLCXKu4Hqc6w1ec-53" value="Recherche" style="swimlane;fontStyle=0;childLayout=stackLayout;horizontal=1;startSize=30;horizontalStack=0;resizeParent=1;resizeParentMax=0;resizeLast=0;collapsible=1;marginBottom=0;whiteSpace=wrap;html=1;" parent="1" vertex="1">
          <mxGeometry x="303.5" y="1180" width="140" height="300" as="geometry">
            <mxRectangle x="250" y="30" width="90" height="30" as="alternateBounds" />
          </mxGeometry>
        </mxCell>
        <mxCell id="5uqwfvLCXKu4Hqc6w1ec-54" value="id" style="text;strokeColor=none;fillColor=none;align=left;verticalAlign=middle;spacingLeft=4;spacingRight=4;overflow=hidden;points=[[0,0.5],[1,0.5]];portConstraint=eastwest;rotatable=0;whiteSpace=wrap;html=1;fontStyle=4" parent="5uqwfvLCXKu4Hqc6w1ec-53" vertex="1">
          <mxGeometry y="30" width="140" height="30" as="geometry" />
        </mxCell>
        <mxCell id="5uqwfvLCXKu4Hqc6w1ec-57" value="idUtilisateur" style="text;strokeColor=none;fillColor=none;align=left;verticalAlign=middle;spacingLeft=4;spacingRight=4;overflow=hidden;points=[[0,0.5],[1,0.5]];portConstraint=eastwest;rotatable=0;whiteSpace=wrap;html=1;fontStyle=0" parent="5uqwfvLCXKu4Hqc6w1ec-53" vertex="1">
          <mxGeometry y="60" width="140" height="30" as="geometry" />
        </mxCell>
        <mxCell id="5uqwfvLCXKu4Hqc6w1ec-58" value="idPlanete" style="text;strokeColor=none;fillColor=none;align=left;verticalAlign=middle;spacingLeft=4;spacingRight=4;overflow=hidden;points=[[0,0.5],[1,0.5]];portConstraint=eastwest;rotatable=0;whiteSpace=wrap;html=1;" parent="5uqwfvLCXKu4Hqc6w1ec-53" vertex="1">
          <mxGeometry y="90" width="140" height="30" as="geometry" />
        </mxCell>
        <mxCell id="5uqwfvLCXKu4Hqc6w1ec-59" value="Nom" style="text;strokeColor=none;fillColor=none;align=left;verticalAlign=middle;spacingLeft=4;spacingRight=4;overflow=hidden;points=[[0,0.5],[1,0.5]];portConstraint=eastwest;rotatable=0;whiteSpace=wrap;html=1;" parent="5uqwfvLCXKu4Hqc6w1ec-53" vertex="1">
          <mxGeometry y="120" width="140" height="30" as="geometry" />
        </mxCell>
        <mxCell id="5uqwfvLCXKu4Hqc6w1ec-60" value="CoutDeuterium" style="text;strokeColor=none;fillColor=none;align=left;verticalAlign=middle;spacingLeft=4;spacingRight=4;overflow=hidden;points=[[0,0.5],[1,0.5]];portConstraint=eastwest;rotatable=0;whiteSpace=wrap;html=1;" parent="5uqwfvLCXKu4Hqc6w1ec-53" vertex="1">
          <mxGeometry y="150" width="140" height="30" as="geometry" />
        </mxCell>
        <mxCell id="5uqwfvLCXKu4Hqc6w1ec-61" value="CoutTemps" style="text;strokeColor=none;fillColor=none;align=left;verticalAlign=middle;spacingLeft=4;spacingRight=4;overflow=hidden;points=[[0,0.5],[1,0.5]];portConstraint=eastwest;rotatable=0;whiteSpace=wrap;html=1;" parent="5uqwfvLCXKu4Hqc6w1ec-53" vertex="1">
          <mxGeometry y="180" width="140" height="30" as="geometry" />
        </mxCell>
        <mxCell id="5uqwfvLCXKu4Hqc6w1ec-62" value="Niveau" style="text;strokeColor=none;fillColor=none;align=left;verticalAlign=middle;spacingLeft=4;spacingRight=4;overflow=hidden;points=[[0,0.5],[1,0.5]];portConstraint=eastwest;rotatable=0;whiteSpace=wrap;html=1;" parent="5uqwfvLCXKu4Hqc6w1ec-53" vertex="1">
          <mxGeometry y="210" width="140" height="30" as="geometry" />
        </mxCell>
        <mxCell id="5uqwfvLCXKu4Hqc6w1ec-63" value="idRechercheMere" style="text;strokeColor=none;fillColor=none;align=left;verticalAlign=middle;spacingLeft=4;spacingRight=4;overflow=hidden;points=[[0,0.5],[1,0.5]];portConstraint=eastwest;rotatable=0;whiteSpace=wrap;html=1;" parent="5uqwfvLCXKu4Hqc6w1ec-53" vertex="1">
          <mxGeometry y="240" width="140" height="30" as="geometry" />
        </mxCell>
        <mxCell id="5uqwfvLCXKu4Hqc6w1ec-55" value="NiveauRechercheMere" style="text;strokeColor=none;fillColor=none;align=left;verticalAlign=middle;spacingLeft=4;spacingRight=4;overflow=hidden;points=[[0,0.5],[1,0.5]];portConstraint=eastwest;rotatable=0;whiteSpace=wrap;html=1;" parent="5uqwfvLCXKu4Hqc6w1ec-53" vertex="1">
          <mxGeometry y="270" width="140" height="30" as="geometry" />
        </mxCell>
        <mxCell id="5uqwfvLCXKu4Hqc6w1ec-65" value="Ressource" style="swimlane;fontStyle=0;childLayout=stackLayout;horizontal=1;startSize=30;horizontalStack=0;resizeParent=1;resizeParentMax=0;resizeLast=0;collapsible=1;marginBottom=0;whiteSpace=wrap;html=1;" parent="1" vertex="1">
          <mxGeometry x="710" y="40" width="140" height="210" as="geometry" />
        </mxCell>
        <mxCell id="5uqwfvLCXKu4Hqc6w1ec-66" value="id" style="text;strokeColor=none;fillColor=none;align=left;verticalAlign=middle;spacingLeft=4;spacingRight=4;overflow=hidden;points=[[0,0.5],[1,0.5]];portConstraint=eastwest;rotatable=0;whiteSpace=wrap;html=1;fontStyle=4" parent="5uqwfvLCXKu4Hqc6w1ec-65" vertex="1">
          <mxGeometry y="30" width="140" height="30" as="geometry" />
        </mxCell>
        <mxCell id="5uqwfvLCXKu4Hqc6w1ec-67" value="idUtilisateur" style="text;strokeColor=none;fillColor=none;align=left;verticalAlign=middle;spacingLeft=4;spacingRight=4;overflow=hidden;points=[[0,0.5],[1,0.5]];portConstraint=eastwest;rotatable=0;whiteSpace=wrap;html=1;" parent="5uqwfvLCXKu4Hqc6w1ec-65" vertex="1">
          <mxGeometry y="60" width="140" height="30" as="geometry" />
        </mxCell>
        <mxCell id="5uqwfvLCXKu4Hqc6w1ec-68" value="idUnivers" style="text;strokeColor=none;fillColor=none;align=left;verticalAlign=middle;spacingLeft=4;spacingRight=4;overflow=hidden;points=[[0,0.5],[1,0.5]];portConstraint=eastwest;rotatable=0;whiteSpace=wrap;html=1;" parent="5uqwfvLCXKu4Hqc6w1ec-65" vertex="1">
          <mxGeometry y="90" width="140" height="30" as="geometry" />
        </mxCell>
        <mxCell id="5uqwfvLCXKu4Hqc6w1ec-69" value="Metal" style="text;strokeColor=none;fillColor=none;align=left;verticalAlign=middle;spacingLeft=4;spacingRight=4;overflow=hidden;points=[[0,0.5],[1,0.5]];portConstraint=eastwest;rotatable=0;whiteSpace=wrap;html=1;" parent="5uqwfvLCXKu4Hqc6w1ec-65" vertex="1">
          <mxGeometry y="120" width="140" height="30" as="geometry" />
        </mxCell>
        <mxCell id="5uqwfvLCXKu4Hqc6w1ec-70" value="Deuterium" style="text;strokeColor=none;fillColor=none;align=left;verticalAlign=middle;spacingLeft=4;spacingRight=4;overflow=hidden;points=[[0,0.5],[1,0.5]];portConstraint=eastwest;rotatable=0;whiteSpace=wrap;html=1;" parent="5uqwfvLCXKu4Hqc6w1ec-65" vertex="1">
          <mxGeometry y="150" width="140" height="30" as="geometry" />
        </mxCell>
        <mxCell id="5uqwfvLCXKu4Hqc6w1ec-71" value="Energie" style="text;strokeColor=none;fillColor=none;align=left;verticalAlign=middle;spacingLeft=4;spacingRight=4;overflow=hidden;points=[[0,0.5],[1,0.5]];portConstraint=eastwest;rotatable=0;whiteSpace=wrap;html=1;" parent="5uqwfvLCXKu4Hqc6w1ec-65" vertex="1">
          <mxGeometry y="180" width="140" height="30" as="geometry" />
        </mxCell>
        <mxCell id="5uqwfvLCXKu4Hqc6w1ec-73" value="Galaxie" style="swimlane;fontStyle=0;childLayout=stackLayout;horizontal=1;startSize=30;horizontalStack=0;resizeParent=1;resizeParentMax=0;resizeLast=0;collapsible=1;marginBottom=0;whiteSpace=wrap;html=1;" parent="1" vertex="1">
          <mxGeometry x="250" y="310" width="140" height="120" as="geometry">
            <mxRectangle x="250" y="30" width="90" height="30" as="alternateBounds" />
          </mxGeometry>
        </mxCell>
        <mxCell id="5uqwfvLCXKu4Hqc6w1ec-74" value="id" style="text;strokeColor=none;fillColor=none;align=left;verticalAlign=middle;spacingLeft=4;spacingRight=4;overflow=hidden;points=[[0,0.5],[1,0.5]];portConstraint=eastwest;rotatable=0;whiteSpace=wrap;html=1;fontStyle=4" parent="5uqwfvLCXKu4Hqc6w1ec-73" vertex="1">
          <mxGeometry y="30" width="140" height="30" as="geometry" />
        </mxCell>
        <mxCell id="5uqwfvLCXKu4Hqc6w1ec-76" value="idUnivers" style="text;strokeColor=none;fillColor=none;align=left;verticalAlign=middle;spacingLeft=4;spacingRight=4;overflow=hidden;points=[[0,0.5],[1,0.5]];portConstraint=eastwest;rotatable=0;whiteSpace=wrap;html=1;" parent="5uqwfvLCXKu4Hqc6w1ec-73" vertex="1">
          <mxGeometry y="60" width="140" height="30" as="geometry" />
        </mxCell>
        <mxCell id="5uqwfvLCXKu4Hqc6w1ec-75" value="nom" style="text;strokeColor=none;fillColor=none;align=left;verticalAlign=middle;spacingLeft=4;spacingRight=4;overflow=hidden;points=[[0,0.5],[1,0.5]];portConstraint=eastwest;rotatable=0;whiteSpace=wrap;html=1;" parent="5uqwfvLCXKu4Hqc6w1ec-73" vertex="1">
          <mxGeometry y="90" width="140" height="30" as="geometry" />
        </mxCell>
        <mxCell id="5uqwfvLCXKu4Hqc6w1ec-78" value="1,1" style="text;html=1;strokeColor=none;fillColor=none;align=center;verticalAlign=middle;whiteSpace=wrap;rounded=0;" parent="1" vertex="1">
          <mxGeometry x="650" y="40" width="60" height="30" as="geometry" />
        </mxCell>
        <mxCell id="5uqwfvLCXKu4Hqc6w1ec-83" value="1,N" style="text;html=1;strokeColor=none;fillColor=none;align=center;verticalAlign=middle;whiteSpace=wrap;rounded=0;" parent="1" vertex="1">
          <mxGeometry x="383.5" y="30" width="60" height="30" as="geometry" />
        </mxCell>
        <mxCell id="5uqwfvLCXKu4Hqc6w1ec-94" style="edgeStyle=orthogonalEdgeStyle;rounded=0;orthogonalLoop=1;jettySize=auto;html=1;exitX=0;exitY=0.5;exitDx=0;exitDy=0;entryX=1;entryY=0.25;entryDx=0;entryDy=0;endArrow=none;endFill=0;" parent="1" source="5uqwfvLCXKu4Hqc6w1ec-92" target="5uqwfvLCXKu4Hqc6w1ec-37" edge="1">
          <mxGeometry relative="1" as="geometry" />
        </mxCell>
        <mxCell id="5uqwfvLCXKu4Hqc6w1ec-95" style="edgeStyle=orthogonalEdgeStyle;rounded=0;orthogonalLoop=1;jettySize=auto;html=1;exitX=1;exitY=0.5;exitDx=0;exitDy=0;entryX=0.012;entryY=0.092;entryDx=0;entryDy=0;entryPerimeter=0;endArrow=none;endFill=0;" parent="1" source="5uqwfvLCXKu4Hqc6w1ec-92" target="5uqwfvLCXKu4Hqc6w1ec-65" edge="1">
          <mxGeometry relative="1" as="geometry" />
        </mxCell>
        <mxCell id="5uqwfvLCXKu4Hqc6w1ec-92" value="" style="ellipse;whiteSpace=wrap;html=1;" parent="1" vertex="1">
          <mxGeometry x="460" y="25" width="120" height="80" as="geometry" />
        </mxCell>
        <mxCell id="5uqwfvLCXKu4Hqc6w1ec-96" value="" style="ellipse;whiteSpace=wrap;html=1;" parent="1" vertex="1">
          <mxGeometry x="260" y="170" width="120" height="80" as="geometry" />
        </mxCell>
        <mxCell id="5uqwfvLCXKu4Hqc6w1ec-97" value="" style="endArrow=none;html=1;rounded=0;entryX=0.5;entryY=1;entryDx=0;entryDy=0;exitX=0.5;exitY=0;exitDx=0;exitDy=0;" parent="1" source="5uqwfvLCXKu4Hqc6w1ec-73" target="5uqwfvLCXKu4Hqc6w1ec-96" edge="1">
          <mxGeometry width="50" height="50" relative="1" as="geometry">
            <mxPoint x="300" y="360" as="sourcePoint" />
            <mxPoint x="350" y="310" as="targetPoint" />
          </mxGeometry>
        </mxCell>
        <mxCell id="5uqwfvLCXKu4Hqc6w1ec-98" value="" style="endArrow=none;html=1;rounded=0;exitX=0.5;exitY=0;exitDx=0;exitDy=0;" parent="1" source="5uqwfvLCXKu4Hqc6w1ec-96" edge="1">
          <mxGeometry width="50" height="50" relative="1" as="geometry">
            <mxPoint x="330" y="380" as="sourcePoint" />
            <mxPoint x="320" y="120" as="targetPoint" />
          </mxGeometry>
        </mxCell>
        <mxCell id="5uqwfvLCXKu4Hqc6w1ec-99" value="1,N" style="text;html=1;strokeColor=none;fillColor=none;align=center;verticalAlign=middle;whiteSpace=wrap;rounded=0;" parent="1" vertex="1">
          <mxGeometry x="310" y="120" width="60" height="30" as="geometry" />
        </mxCell>
        <mxCell id="5uqwfvLCXKu4Hqc6w1ec-100" value="1,1" style="text;html=1;strokeColor=none;fillColor=none;align=center;verticalAlign=middle;whiteSpace=wrap;rounded=0;" parent="1" vertex="1">
          <mxGeometry x="310" y="280" width="60" height="30" as="geometry" />
        </mxCell>
        <mxCell id="5uqwfvLCXKu4Hqc6w1ec-110" style="edgeStyle=orthogonalEdgeStyle;rounded=0;orthogonalLoop=1;jettySize=auto;html=1;exitX=1;exitY=0.5;exitDx=0;exitDy=0;entryX=0.008;entryY=0.111;entryDx=0;entryDy=0;entryPerimeter=0;endArrow=none;endFill=0;" parent="1" source="5uqwfvLCXKu4Hqc6w1ec-101" target="5uqwfvLCXKu4Hqc6w1ec-104" edge="1">
          <mxGeometry relative="1" as="geometry" />
        </mxCell>
        <mxCell id="5uqwfvLCXKu4Hqc6w1ec-101" value="" style="ellipse;whiteSpace=wrap;html=1;" parent="1" vertex="1">
          <mxGeometry x="260" y="490" width="120" height="80" as="geometry" />
        </mxCell>
        <mxCell id="5uqwfvLCXKu4Hqc6w1ec-103" value="" style="endArrow=none;html=1;rounded=0;entryX=0.504;entryY=1.035;entryDx=0;entryDy=0;entryPerimeter=0;" parent="1" source="5uqwfvLCXKu4Hqc6w1ec-101" target="5uqwfvLCXKu4Hqc6w1ec-75" edge="1">
          <mxGeometry width="50" height="50" relative="1" as="geometry">
            <mxPoint x="190" y="470" as="sourcePoint" />
            <mxPoint x="190" y="410" as="targetPoint" />
          </mxGeometry>
        </mxCell>
        <mxCell id="5uqwfvLCXKu4Hqc6w1ec-104" value="SystemeSolaire" style="swimlane;fontStyle=0;childLayout=stackLayout;horizontal=1;startSize=30;horizontalStack=0;resizeParent=1;resizeParentMax=0;resizeLast=0;collapsible=1;marginBottom=0;whiteSpace=wrap;html=1;" parent="1" vertex="1">
          <mxGeometry x="450" y="520" width="140" height="120" as="geometry">
            <mxRectangle x="250" y="30" width="90" height="30" as="alternateBounds" />
          </mxGeometry>
        </mxCell>
        <mxCell id="5uqwfvLCXKu4Hqc6w1ec-105" value="id" style="text;strokeColor=none;fillColor=none;align=left;verticalAlign=middle;spacingLeft=4;spacingRight=4;overflow=hidden;points=[[0,0.5],[1,0.5]];portConstraint=eastwest;rotatable=0;whiteSpace=wrap;html=1;fontStyle=4" parent="5uqwfvLCXKu4Hqc6w1ec-104" vertex="1">
          <mxGeometry y="30" width="140" height="30" as="geometry" />
        </mxCell>
        <mxCell id="5uqwfvLCXKu4Hqc6w1ec-108" value="idGalaxie" style="text;strokeColor=none;fillColor=none;align=left;verticalAlign=middle;spacingLeft=4;spacingRight=4;overflow=hidden;points=[[0,0.5],[1,0.5]];portConstraint=eastwest;rotatable=0;whiteSpace=wrap;html=1;" parent="5uqwfvLCXKu4Hqc6w1ec-104" vertex="1">
          <mxGeometry y="60" width="140" height="30" as="geometry" />
        </mxCell>
        <mxCell id="5uqwfvLCXKu4Hqc6w1ec-107" value="nom" style="text;strokeColor=none;fillColor=none;align=left;verticalAlign=middle;spacingLeft=4;spacingRight=4;overflow=hidden;points=[[0,0.5],[1,0.5]];portConstraint=eastwest;rotatable=0;whiteSpace=wrap;html=1;" parent="5uqwfvLCXKu4Hqc6w1ec-104" vertex="1">
          <mxGeometry y="90" width="140" height="30" as="geometry" />
        </mxCell>
        <mxCell id="5uqwfvLCXKu4Hqc6w1ec-111" value="1,N" style="text;html=1;strokeColor=none;fillColor=none;align=center;verticalAlign=middle;whiteSpace=wrap;rounded=0;" parent="1" vertex="1">
          <mxGeometry x="310" y="430" width="60" height="30" as="geometry" />
        </mxCell>
        <mxCell id="5uqwfvLCXKu4Hqc6w1ec-112" value="1,1" style="text;html=1;strokeColor=none;fillColor=none;align=center;verticalAlign=middle;whiteSpace=wrap;rounded=0;" parent="1" vertex="1">
          <mxGeometry x="400" y="505" width="60" height="30" as="geometry" />
        </mxCell>
        <mxCell id="5uqwfvLCXKu4Hqc6w1ec-114" style="edgeStyle=orthogonalEdgeStyle;rounded=0;orthogonalLoop=1;jettySize=auto;html=1;exitX=0.5;exitY=0;exitDx=0;exitDy=0;entryX=0.502;entryY=1.033;entryDx=0;entryDy=0;entryPerimeter=0;endArrow=none;endFill=0;" parent="1" source="5uqwfvLCXKu4Hqc6w1ec-113" target="5uqwfvLCXKu4Hqc6w1ec-107" edge="1">
          <mxGeometry relative="1" as="geometry" />
        </mxCell>
        <mxCell id="5uqwfvLCXKu4Hqc6w1ec-113" value="" style="ellipse;whiteSpace=wrap;html=1;" parent="1" vertex="1">
          <mxGeometry x="470" y="680" width="120" height="80" as="geometry" />
        </mxCell>
        <mxCell id="5uqwfvLCXKu4Hqc6w1ec-119" style="edgeStyle=orthogonalEdgeStyle;rounded=0;orthogonalLoop=1;jettySize=auto;html=1;exitX=0.5;exitY=0;exitDx=0;exitDy=0;entryX=0.5;entryY=1;entryDx=0;entryDy=0;endArrow=none;endFill=0;" parent="1" source="5uqwfvLCXKu4Hqc6w1ec-115" target="5uqwfvLCXKu4Hqc6w1ec-113" edge="1">
          <mxGeometry relative="1" as="geometry" />
        </mxCell>
        <mxCell id="nQhFISSbfg36RetpWJYL-1" value="" style="edgeStyle=orthogonalEdgeStyle;rounded=0;orthogonalLoop=1;jettySize=auto;html=1;entryX=0.007;entryY=0.142;entryDx=0;entryDy=0;entryPerimeter=0;exitX=1;exitY=0.5;exitDx=0;exitDy=0;" parent="1" source="5uqwfvLCXKu4Hqc6w1ec-116" target="5uqwfvLCXKu4Hqc6w1ec-120" edge="1">
          <mxGeometry relative="1" as="geometry" />
        </mxCell>
        <mxCell id="5uqwfvLCXKu4Hqc6w1ec-115" value="Planète" style="swimlane;fontStyle=0;childLayout=stackLayout;horizontal=1;startSize=30;horizontalStack=0;resizeParent=1;resizeParentMax=0;resizeLast=0;collapsible=1;marginBottom=0;whiteSpace=wrap;html=1;" parent="1" vertex="1">
          <mxGeometry x="460" y="830" width="140" height="240" as="geometry" />
        </mxCell>
        <mxCell id="5uqwfvLCXKu4Hqc6w1ec-116" value="&lt;u&gt;id&lt;/u&gt;" style="text;strokeColor=none;fillColor=none;align=left;verticalAlign=middle;spacingLeft=4;spacingRight=4;overflow=hidden;points=[[0,0.5],[1,0.5]];portConstraint=eastwest;rotatable=0;whiteSpace=wrap;html=1;" parent="5uqwfvLCXKu4Hqc6w1ec-115" vertex="1">
          <mxGeometry y="30" width="140" height="30" as="geometry" />
        </mxCell>
        <mxCell id="z6I0mNV__WblY3gd8SOp-3" value="idUnivers" style="text;strokeColor=none;fillColor=none;align=left;verticalAlign=middle;spacingLeft=4;spacingRight=4;overflow=hidden;points=[[0,0.5],[1,0.5]];portConstraint=eastwest;rotatable=0;whiteSpace=wrap;html=1;" parent="5uqwfvLCXKu4Hqc6w1ec-115" vertex="1">
          <mxGeometry y="60" width="140" height="30" as="geometry" />
        </mxCell>
        <mxCell id="5uqwfvLCXKu4Hqc6w1ec-117" value="idSystemeSolaire" style="text;strokeColor=none;fillColor=none;align=left;verticalAlign=middle;spacingLeft=4;spacingRight=4;overflow=hidden;points=[[0,0.5],[1,0.5]];portConstraint=eastwest;rotatable=0;whiteSpace=wrap;html=1;" parent="5uqwfvLCXKu4Hqc6w1ec-115" vertex="1">
          <mxGeometry y="90" width="140" height="30" as="geometry" />
        </mxCell>
        <mxCell id="5uqwfvLCXKu4Hqc6w1ec-126" value="idPosition" style="text;strokeColor=none;fillColor=none;align=left;verticalAlign=middle;spacingLeft=4;spacingRight=4;overflow=hidden;points=[[0,0.5],[1,0.5]];portConstraint=eastwest;rotatable=0;whiteSpace=wrap;html=1;" parent="5uqwfvLCXKu4Hqc6w1ec-115" vertex="1">
          <mxGeometry y="120" width="140" height="30" as="geometry" />
        </mxCell>
        <mxCell id="z6I0mNV__WblY3gd8SOp-1" value="idUtilisateurs" style="text;strokeColor=none;fillColor=none;align=left;verticalAlign=middle;spacingLeft=4;spacingRight=4;overflow=hidden;points=[[0,0.5],[1,0.5]];portConstraint=eastwest;rotatable=0;whiteSpace=wrap;html=1;" parent="5uqwfvLCXKu4Hqc6w1ec-115" vertex="1">
          <mxGeometry y="150" width="140" height="30" as="geometry" />
        </mxCell>
        <mxCell id="5uqwfvLCXKu4Hqc6w1ec-125" value="nom" style="text;strokeColor=none;fillColor=none;align=left;verticalAlign=middle;spacingLeft=4;spacingRight=4;overflow=hidden;points=[[0,0.5],[1,0.5]];portConstraint=eastwest;rotatable=0;whiteSpace=wrap;html=1;" parent="5uqwfvLCXKu4Hqc6w1ec-115" vertex="1">
          <mxGeometry y="180" width="140" height="30" as="geometry" />
        </mxCell>
        <mxCell id="z6I0mNV__WblY3gd8SOp-2" value="NumImage" style="text;strokeColor=none;fillColor=none;align=left;verticalAlign=middle;spacingLeft=4;spacingRight=4;overflow=hidden;points=[[0,0.5],[1,0.5]];portConstraint=eastwest;rotatable=0;whiteSpace=wrap;html=1;" parent="5uqwfvLCXKu4Hqc6w1ec-115" vertex="1">
          <mxGeometry y="210" width="140" height="30" as="geometry" />
        </mxCell>
        <mxCell id="5uqwfvLCXKu4Hqc6w1ec-120" value="Flotte" style="swimlane;fontStyle=0;childLayout=stackLayout;horizontal=1;startSize=30;horizontalStack=0;resizeParent=1;resizeParentMax=0;resizeLast=0;collapsible=1;marginBottom=0;whiteSpace=wrap;html=1;" parent="1" vertex="1">
          <mxGeometry x="800" y="810" width="140" height="120" as="geometry" />
        </mxCell>
        <mxCell id="5uqwfvLCXKu4Hqc6w1ec-121" value="&lt;u&gt;id&lt;/u&gt;" style="text;strokeColor=none;fillColor=none;align=left;verticalAlign=middle;spacingLeft=4;spacingRight=4;overflow=hidden;points=[[0,0.5],[1,0.5]];portConstraint=eastwest;rotatable=0;whiteSpace=wrap;html=1;" parent="5uqwfvLCXKu4Hqc6w1ec-120" vertex="1">
          <mxGeometry y="30" width="140" height="30" as="geometry" />
        </mxCell>
        <mxCell id="5uqwfvLCXKu4Hqc6w1ec-122" value="typeVaisseaux" style="text;strokeColor=none;fillColor=none;align=left;verticalAlign=middle;spacingLeft=4;spacingRight=4;overflow=hidden;points=[[0,0.5],[1,0.5]];portConstraint=eastwest;rotatable=0;whiteSpace=wrap;html=1;" parent="5uqwfvLCXKu4Hqc6w1ec-120" vertex="1">
          <mxGeometry y="60" width="140" height="30" as="geometry" />
        </mxCell>
        <mxCell id="5uqwfvLCXKu4Hqc6w1ec-123" value="quantité" style="text;strokeColor=none;fillColor=none;align=left;verticalAlign=middle;spacingLeft=4;spacingRight=4;overflow=hidden;points=[[0,0.5],[1,0.5]];portConstraint=eastwest;rotatable=0;whiteSpace=wrap;html=1;" parent="5uqwfvLCXKu4Hqc6w1ec-120" vertex="1">
          <mxGeometry y="90" width="140" height="30" as="geometry" />
        </mxCell>
        <mxCell id="5uqwfvLCXKu4Hqc6w1ec-128" value="Position" style="swimlane;fontStyle=0;childLayout=stackLayout;horizontal=1;startSize=30;horizontalStack=0;resizeParent=1;resizeParentMax=0;resizeLast=0;collapsible=1;marginBottom=0;whiteSpace=wrap;html=1;" parent="1" vertex="1">
          <mxGeometry x="660" y="1150" width="140" height="180" as="geometry" />
        </mxCell>
        <mxCell id="5uqwfvLCXKu4Hqc6w1ec-129" value="&lt;u&gt;id&lt;/u&gt;" style="text;strokeColor=none;fillColor=none;align=left;verticalAlign=middle;spacingLeft=4;spacingRight=4;overflow=hidden;points=[[0,0.5],[1,0.5]];portConstraint=eastwest;rotatable=0;whiteSpace=wrap;html=1;" parent="5uqwfvLCXKu4Hqc6w1ec-128" vertex="1">
          <mxGeometry y="30" width="140" height="30" as="geometry" />
        </mxCell>
        <mxCell id="5uqwfvLCXKu4Hqc6w1ec-131" value="taille" style="text;strokeColor=none;fillColor=none;align=left;verticalAlign=middle;spacingLeft=4;spacingRight=4;overflow=hidden;points=[[0,0.5],[1,0.5]];portConstraint=eastwest;rotatable=0;whiteSpace=wrap;html=1;" parent="5uqwfvLCXKu4Hqc6w1ec-128" vertex="1">
          <mxGeometry y="60" width="140" height="30" as="geometry" />
        </mxCell>
        <mxCell id="5uqwfvLCXKu4Hqc6w1ec-132" value="bonusSolaire" style="text;strokeColor=none;fillColor=none;align=left;verticalAlign=middle;spacingLeft=4;spacingRight=4;overflow=hidden;points=[[0,0.5],[1,0.5]];portConstraint=eastwest;rotatable=0;whiteSpace=wrap;html=1;" parent="5uqwfvLCXKu4Hqc6w1ec-128" vertex="1">
          <mxGeometry y="90" width="140" height="30" as="geometry" />
        </mxCell>
        <mxCell id="5uqwfvLCXKu4Hqc6w1ec-133" value="bonusMetal" style="text;strokeColor=none;fillColor=none;align=left;verticalAlign=middle;spacingLeft=4;spacingRight=4;overflow=hidden;points=[[0,0.5],[1,0.5]];portConstraint=eastwest;rotatable=0;whiteSpace=wrap;html=1;" parent="5uqwfvLCXKu4Hqc6w1ec-128" vertex="1">
          <mxGeometry y="120" width="140" height="30" as="geometry" />
        </mxCell>
        <mxCell id="5uqwfvLCXKu4Hqc6w1ec-134" value="bonusDeuterium" style="text;strokeColor=none;fillColor=none;align=left;verticalAlign=middle;spacingLeft=4;spacingRight=4;overflow=hidden;points=[[0,0.5],[1,0.5]];portConstraint=eastwest;rotatable=0;whiteSpace=wrap;html=1;" parent="5uqwfvLCXKu4Hqc6w1ec-128" vertex="1">
          <mxGeometry y="150" width="140" height="30" as="geometry" />
        </mxCell>
        <mxCell id="H8S7PLvkENnry8t2hhdn-2" style="edgeStyle=orthogonalEdgeStyle;rounded=0;orthogonalLoop=1;jettySize=auto;html=1;exitX=0.5;exitY=0;exitDx=0;exitDy=0;" parent="1" source="5uqwfvLCXKu4Hqc6w1ec-135" target="5uqwfvLCXKu4Hqc6w1ec-126" edge="1">
          <mxGeometry relative="1" as="geometry" />
        </mxCell>
        <mxCell id="5uqwfvLCXKu4Hqc6w1ec-135" value="" style="ellipse;whiteSpace=wrap;html=1;" parent="1" vertex="1">
          <mxGeometry x="670" y="1020" width="120" height="80" as="geometry" />
        </mxCell>
        <mxCell id="5uqwfvLCXKu4Hqc6w1ec-137" value="" style="endArrow=none;html=1;rounded=0;exitX=0.5;exitY=0;exitDx=0;exitDy=0;entryX=0.5;entryY=1;entryDx=0;entryDy=0;" parent="1" source="5uqwfvLCXKu4Hqc6w1ec-128" target="5uqwfvLCXKu4Hqc6w1ec-135" edge="1">
          <mxGeometry width="50" height="50" relative="1" as="geometry">
            <mxPoint x="470" y="1140" as="sourcePoint" />
            <mxPoint x="470" y="1090" as="targetPoint" />
          </mxGeometry>
        </mxCell>
        <mxCell id="nQhFISSbfg36RetpWJYL-11" value="Installations" style="swimlane;fontStyle=0;childLayout=stackLayout;horizontal=1;startSize=30;horizontalStack=0;resizeParent=1;resizeParentMax=0;resizeLast=0;collapsible=1;marginBottom=0;whiteSpace=wrap;html=1;" parent="1" vertex="1">
          <mxGeometry x="-260" y="535" width="140" height="240" as="geometry" />
        </mxCell>
        <mxCell id="nQhFISSbfg36RetpWJYL-12" value="&lt;u&gt;id&lt;/u&gt;" style="text;strokeColor=none;fillColor=none;align=left;verticalAlign=middle;spacingLeft=4;spacingRight=4;overflow=hidden;points=[[0,0.5],[1,0.5]];portConstraint=eastwest;rotatable=0;whiteSpace=wrap;html=1;" parent="nQhFISSbfg36RetpWJYL-11" vertex="1">
          <mxGeometry y="30" width="140" height="30" as="geometry" />
        </mxCell>
        <mxCell id="Z-jQogyuRLlV1NRKOcdT-37" value="idRecherche" style="text;strokeColor=none;fillColor=none;align=left;verticalAlign=middle;spacingLeft=4;spacingRight=4;overflow=hidden;points=[[0,0.5],[1,0.5]];portConstraint=eastwest;rotatable=0;whiteSpace=wrap;html=1;" vertex="1" parent="nQhFISSbfg36RetpWJYL-11">
          <mxGeometry y="60" width="140" height="30" as="geometry" />
        </mxCell>
        <mxCell id="nQhFISSbfg36RetpWJYL-57" value="niveauRecherche" style="text;strokeColor=none;fillColor=none;align=left;verticalAlign=middle;spacingLeft=4;spacingRight=4;overflow=hidden;points=[[0,0.5],[1,0.5]];portConstraint=eastwest;rotatable=0;whiteSpace=wrap;html=1;" parent="nQhFISSbfg36RetpWJYL-11" vertex="1">
          <mxGeometry y="90" width="140" height="30" as="geometry" />
        </mxCell>
        <mxCell id="Z-jQogyuRLlV1NRKOcdT-21" value="nom" style="text;strokeColor=none;fillColor=none;align=left;verticalAlign=middle;spacingLeft=4;spacingRight=4;overflow=hidden;points=[[0,0.5],[1,0.5]];portConstraint=eastwest;rotatable=0;whiteSpace=wrap;html=1;" vertex="1" parent="nQhFISSbfg36RetpWJYL-11">
          <mxGeometry y="120" width="140" height="30" as="geometry" />
        </mxCell>
        <mxCell id="nQhFISSbfg36RetpWJYL-15" value="métal" style="text;strokeColor=none;fillColor=none;align=left;verticalAlign=middle;spacingLeft=4;spacingRight=4;overflow=hidden;points=[[0,0.5],[1,0.5]];portConstraint=eastwest;rotatable=0;whiteSpace=wrap;html=1;" parent="nQhFISSbfg36RetpWJYL-11" vertex="1">
          <mxGeometry y="150" width="140" height="30" as="geometry" />
        </mxCell>
        <mxCell id="nQhFISSbfg36RetpWJYL-16" value="energie" style="text;strokeColor=none;fillColor=none;align=left;verticalAlign=middle;spacingLeft=4;spacingRight=4;overflow=hidden;points=[[0,0.5],[1,0.5]];portConstraint=eastwest;rotatable=0;whiteSpace=wrap;html=1;" parent="nQhFISSbfg36RetpWJYL-11" vertex="1">
          <mxGeometry y="180" width="140" height="30" as="geometry" />
        </mxCell>
        <mxCell id="Z-jQogyuRLlV1NRKOcdT-36" value="tempsConstruction" style="text;strokeColor=none;fillColor=none;align=left;verticalAlign=middle;spacingLeft=4;spacingRight=4;overflow=hidden;points=[[0,0.5],[1,0.5]];portConstraint=eastwest;rotatable=0;whiteSpace=wrap;html=1;" vertex="1" parent="nQhFISSbfg36RetpWJYL-11">
          <mxGeometry y="210" width="140" height="30" as="geometry" />
        </mxCell>
        <mxCell id="nQhFISSbfg36RetpWJYL-19" value="Minier" style="swimlane;fontStyle=0;childLayout=stackLayout;horizontal=1;startSize=30;horizontalStack=0;resizeParent=1;resizeParentMax=0;resizeLast=0;collapsible=1;marginBottom=0;whiteSpace=wrap;html=1;" parent="1" vertex="1">
          <mxGeometry x="-260" y="800" width="140" height="270" as="geometry" />
        </mxCell>
        <mxCell id="nQhFISSbfg36RetpWJYL-20" value="&lt;u&gt;id&lt;/u&gt;" style="text;strokeColor=none;fillColor=none;align=left;verticalAlign=middle;spacingLeft=4;spacingRight=4;overflow=hidden;points=[[0,0.5],[1,0.5]];portConstraint=eastwest;rotatable=0;whiteSpace=wrap;html=1;" parent="nQhFISSbfg36RetpWJYL-19" vertex="1">
          <mxGeometry y="30" width="140" height="30" as="geometry" />
        </mxCell>
        <mxCell id="Z-jQogyuRLlV1NRKOcdT-35" value="idRecherche" style="text;strokeColor=none;fillColor=none;align=left;verticalAlign=middle;spacingLeft=4;spacingRight=4;overflow=hidden;points=[[0,0.5],[1,0.5]];portConstraint=eastwest;rotatable=0;whiteSpace=wrap;html=1;" vertex="1" parent="nQhFISSbfg36RetpWJYL-19">
          <mxGeometry y="60" width="140" height="30" as="geometry" />
        </mxCell>
        <mxCell id="nQhFISSbfg36RetpWJYL-26" value="NiveauRecherche" style="text;strokeColor=none;fillColor=none;align=left;verticalAlign=middle;spacingLeft=4;spacingRight=4;overflow=hidden;points=[[0,0.5],[1,0.5]];portConstraint=eastwest;rotatable=0;whiteSpace=wrap;html=1;" parent="nQhFISSbfg36RetpWJYL-19" vertex="1">
          <mxGeometry y="90" width="140" height="30" as="geometry" />
        </mxCell>
        <mxCell id="Z-jQogyuRLlV1NRKOcdT-27" value="nom" style="text;strokeColor=none;fillColor=none;align=left;verticalAlign=middle;spacingLeft=4;spacingRight=4;overflow=hidden;points=[[0,0.5],[1,0.5]];portConstraint=eastwest;rotatable=0;whiteSpace=wrap;html=1;" vertex="1" parent="nQhFISSbfg36RetpWJYL-19">
          <mxGeometry y="120" width="140" height="30" as="geometry" />
        </mxCell>
        <mxCell id="nQhFISSbfg36RetpWJYL-22" value="métal" style="text;strokeColor=none;fillColor=none;align=left;verticalAlign=middle;spacingLeft=4;spacingRight=4;overflow=hidden;points=[[0,0.5],[1,0.5]];portConstraint=eastwest;rotatable=0;whiteSpace=wrap;html=1;" parent="nQhFISSbfg36RetpWJYL-19" vertex="1">
          <mxGeometry y="150" width="140" height="30" as="geometry" />
        </mxCell>
        <mxCell id="nQhFISSbfg36RetpWJYL-23" value="energie" style="text;strokeColor=none;fillColor=none;align=left;verticalAlign=middle;spacingLeft=4;spacingRight=4;overflow=hidden;points=[[0,0.5],[1,0.5]];portConstraint=eastwest;rotatable=0;whiteSpace=wrap;html=1;" parent="nQhFISSbfg36RetpWJYL-19" vertex="1">
          <mxGeometry y="180" width="140" height="30" as="geometry" />
        </mxCell>
        <mxCell id="nQhFISSbfg36RetpWJYL-25" value="tempsConstruction" style="text;strokeColor=none;fillColor=none;align=left;verticalAlign=middle;spacingLeft=4;spacingRight=4;overflow=hidden;points=[[0,0.5],[1,0.5]];portConstraint=eastwest;rotatable=0;whiteSpace=wrap;html=1;" parent="nQhFISSbfg36RetpWJYL-19" vertex="1">
          <mxGeometry y="210" width="140" height="30" as="geometry" />
        </mxCell>
        <mxCell id="Z-jQogyuRLlV1NRKOcdT-34" value="production" style="text;strokeColor=none;fillColor=none;align=left;verticalAlign=middle;spacingLeft=4;spacingRight=4;overflow=hidden;points=[[0,0.5],[1,0.5]];portConstraint=eastwest;rotatable=0;whiteSpace=wrap;html=1;" vertex="1" parent="nQhFISSbfg36RetpWJYL-19">
          <mxGeometry y="240" width="140" height="30" as="geometry" />
        </mxCell>
        <mxCell id="nQhFISSbfg36RetpWJYL-29" value="Défense" style="swimlane;fontStyle=0;childLayout=stackLayout;horizontal=1;startSize=30;horizontalStack=0;resizeParent=1;resizeParentMax=0;resizeLast=0;collapsible=1;marginBottom=0;whiteSpace=wrap;html=1;" parent="1" vertex="1">
          <mxGeometry x="-260" y="1110" width="140" height="300" as="geometry" />
        </mxCell>
        <mxCell id="nQhFISSbfg36RetpWJYL-30" value="&lt;u&gt;id&lt;/u&gt;" style="text;strokeColor=none;fillColor=none;align=left;verticalAlign=middle;spacingLeft=4;spacingRight=4;overflow=hidden;points=[[0,0.5],[1,0.5]];portConstraint=eastwest;rotatable=0;whiteSpace=wrap;html=1;" parent="nQhFISSbfg36RetpWJYL-29" vertex="1">
          <mxGeometry y="30" width="140" height="30" as="geometry" />
        </mxCell>
        <mxCell id="Z-jQogyuRLlV1NRKOcdT-33" value="idRecherche" style="text;strokeColor=none;fillColor=none;align=left;verticalAlign=middle;spacingLeft=4;spacingRight=4;overflow=hidden;points=[[0,0.5],[1,0.5]];portConstraint=eastwest;rotatable=0;whiteSpace=wrap;html=1;" vertex="1" parent="nQhFISSbfg36RetpWJYL-29">
          <mxGeometry y="60" width="140" height="30" as="geometry" />
        </mxCell>
        <mxCell id="nQhFISSbfg36RetpWJYL-60" value="niveauRecherche" style="text;strokeColor=none;fillColor=none;align=left;verticalAlign=middle;spacingLeft=4;spacingRight=4;overflow=hidden;points=[[0,0.5],[1,0.5]];portConstraint=eastwest;rotatable=0;whiteSpace=wrap;html=1;" parent="nQhFISSbfg36RetpWJYL-29" vertex="1">
          <mxGeometry y="90" width="140" height="30" as="geometry" />
        </mxCell>
        <mxCell id="Z-jQogyuRLlV1NRKOcdT-32" value="nom" style="text;strokeColor=none;fillColor=none;align=left;verticalAlign=middle;spacingLeft=4;spacingRight=4;overflow=hidden;points=[[0,0.5],[1,0.5]];portConstraint=eastwest;rotatable=0;whiteSpace=wrap;html=1;" vertex="1" parent="nQhFISSbfg36RetpWJYL-29">
          <mxGeometry y="120" width="140" height="30" as="geometry" />
        </mxCell>
        <mxCell id="nQhFISSbfg36RetpWJYL-32" value="métal" style="text;strokeColor=none;fillColor=none;align=left;verticalAlign=middle;spacingLeft=4;spacingRight=4;overflow=hidden;points=[[0,0.5],[1,0.5]];portConstraint=eastwest;rotatable=0;whiteSpace=wrap;html=1;" parent="nQhFISSbfg36RetpWJYL-29" vertex="1">
          <mxGeometry y="150" width="140" height="30" as="geometry" />
        </mxCell>
        <mxCell id="nQhFISSbfg36RetpWJYL-33" value="energie" style="text;strokeColor=none;fillColor=none;align=left;verticalAlign=middle;spacingLeft=4;spacingRight=4;overflow=hidden;points=[[0,0.5],[1,0.5]];portConstraint=eastwest;rotatable=0;whiteSpace=wrap;html=1;" parent="nQhFISSbfg36RetpWJYL-29" vertex="1">
          <mxGeometry y="180" width="140" height="30" as="geometry" />
        </mxCell>
        <mxCell id="nQhFISSbfg36RetpWJYL-34" value="tempsConstruction" style="text;strokeColor=none;fillColor=none;align=left;verticalAlign=middle;spacingLeft=4;spacingRight=4;overflow=hidden;points=[[0,0.5],[1,0.5]];portConstraint=eastwest;rotatable=0;whiteSpace=wrap;html=1;" parent="nQhFISSbfg36RetpWJYL-29" vertex="1">
          <mxGeometry y="210" width="140" height="30" as="geometry" />
        </mxCell>
        <mxCell id="nQhFISSbfg36RetpWJYL-36" value="pointAttaque" style="text;strokeColor=none;fillColor=none;align=left;verticalAlign=middle;spacingLeft=4;spacingRight=4;overflow=hidden;points=[[0,0.5],[1,0.5]];portConstraint=eastwest;rotatable=0;whiteSpace=wrap;html=1;" parent="nQhFISSbfg36RetpWJYL-29" vertex="1">
          <mxGeometry y="240" width="140" height="30" as="geometry" />
        </mxCell>
        <mxCell id="nQhFISSbfg36RetpWJYL-37" value="pointDéfense" style="text;strokeColor=none;fillColor=none;align=left;verticalAlign=middle;spacingLeft=4;spacingRight=4;overflow=hidden;points=[[0,0.5],[1,0.5]];portConstraint=eastwest;rotatable=0;whiteSpace=wrap;html=1;" parent="nQhFISSbfg36RetpWJYL-29" vertex="1">
          <mxGeometry y="270" width="140" height="30" as="geometry" />
        </mxCell>
        <mxCell id="H8S7PLvkENnry8t2hhdn-1" style="edgeStyle=orthogonalEdgeStyle;rounded=0;orthogonalLoop=1;jettySize=auto;html=1;exitX=0.5;exitY=0;exitDx=0;exitDy=0;entryX=1;entryY=0.5;entryDx=0;entryDy=0;" parent="1" source="nQhFISSbfg36RetpWJYL-62" target="5uqwfvLCXKu4Hqc6w1ec-122" edge="1">
          <mxGeometry relative="1" as="geometry" />
        </mxCell>
        <mxCell id="nQhFISSbfg36RetpWJYL-62" value="ChantierSpatial" style="swimlane;fontStyle=0;childLayout=stackLayout;horizontal=1;startSize=30;horizontalStack=0;resizeParent=1;resizeParentMax=0;resizeLast=0;collapsible=1;marginBottom=0;whiteSpace=wrap;html=1;" parent="1" vertex="1">
          <mxGeometry x="970" y="1010" width="140" height="240" as="geometry" />
        </mxCell>
        <mxCell id="nQhFISSbfg36RetpWJYL-63" value="&lt;u&gt;id&lt;/u&gt;" style="text;strokeColor=none;fillColor=none;align=left;verticalAlign=middle;spacingLeft=4;spacingRight=4;overflow=hidden;points=[[0,0.5],[1,0.5]];portConstraint=eastwest;rotatable=0;whiteSpace=wrap;html=1;" parent="nQhFISSbfg36RetpWJYL-62" vertex="1">
          <mxGeometry y="30" width="140" height="30" as="geometry" />
        </mxCell>
        <mxCell id="nQhFISSbfg36RetpWJYL-64" value="typeVaisseaux" style="text;strokeColor=none;fillColor=none;align=left;verticalAlign=middle;spacingLeft=4;spacingRight=4;overflow=hidden;points=[[0,0.5],[1,0.5]];portConstraint=eastwest;rotatable=0;whiteSpace=wrap;html=1;" parent="nQhFISSbfg36RetpWJYL-62" vertex="1">
          <mxGeometry y="60" width="140" height="30" as="geometry" />
        </mxCell>
        <mxCell id="nQhFISSbfg36RetpWJYL-65" value="metal" style="text;strokeColor=none;fillColor=none;align=left;verticalAlign=middle;spacingLeft=4;spacingRight=4;overflow=hidden;points=[[0,0.5],[1,0.5]];portConstraint=eastwest;rotatable=0;whiteSpace=wrap;html=1;" parent="nQhFISSbfg36RetpWJYL-62" vertex="1">
          <mxGeometry y="90" width="140" height="30" as="geometry" />
        </mxCell>
        <mxCell id="nQhFISSbfg36RetpWJYL-66" value="deutérium" style="text;strokeColor=none;fillColor=none;align=left;verticalAlign=middle;spacingLeft=4;spacingRight=4;overflow=hidden;points=[[0,0.5],[1,0.5]];portConstraint=eastwest;rotatable=0;whiteSpace=wrap;html=1;" parent="nQhFISSbfg36RetpWJYL-62" vertex="1">
          <mxGeometry y="120" width="140" height="30" as="geometry" />
        </mxCell>
        <mxCell id="nQhFISSbfg36RetpWJYL-67" value="tempsConstruction" style="text;strokeColor=none;fillColor=none;align=left;verticalAlign=middle;spacingLeft=4;spacingRight=4;overflow=hidden;points=[[0,0.5],[1,0.5]];portConstraint=eastwest;rotatable=0;whiteSpace=wrap;html=1;" parent="nQhFISSbfg36RetpWJYL-62" vertex="1">
          <mxGeometry y="150" width="140" height="30" as="geometry" />
        </mxCell>
        <mxCell id="nQhFISSbfg36RetpWJYL-68" value="pointAttaque" style="text;strokeColor=none;fillColor=none;align=left;verticalAlign=middle;spacingLeft=4;spacingRight=4;overflow=hidden;points=[[0,0.5],[1,0.5]];portConstraint=eastwest;rotatable=0;whiteSpace=wrap;html=1;" parent="nQhFISSbfg36RetpWJYL-62" vertex="1">
          <mxGeometry y="180" width="140" height="30" as="geometry" />
        </mxCell>
        <mxCell id="nQhFISSbfg36RetpWJYL-69" value="pointDéfense" style="text;strokeColor=none;fillColor=none;align=left;verticalAlign=middle;spacingLeft=4;spacingRight=4;overflow=hidden;points=[[0,0.5],[1,0.5]];portConstraint=eastwest;rotatable=0;whiteSpace=wrap;html=1;" parent="nQhFISSbfg36RetpWJYL-62" vertex="1">
          <mxGeometry y="210" width="140" height="30" as="geometry" />
        </mxCell>
        <mxCell id="H8S7PLvkENnry8t2hhdn-5" value="Pseudo" style="swimlane;fontStyle=0;childLayout=stackLayout;horizontal=1;startSize=30;horizontalStack=0;resizeParent=1;resizeParentMax=0;resizeLast=0;collapsible=1;marginBottom=0;whiteSpace=wrap;html=1;" parent="1" vertex="1">
          <mxGeometry x="530" y="-310" width="140" height="90" as="geometry">
            <mxRectangle x="275" y="-230" width="90" height="30" as="alternateBounds" />
          </mxGeometry>
        </mxCell>
        <mxCell id="H8S7PLvkENnry8t2hhdn-6" value="id" style="text;strokeColor=none;fillColor=none;align=left;verticalAlign=middle;spacingLeft=4;spacingRight=4;overflow=hidden;points=[[0,0.5],[1,0.5]];portConstraint=eastwest;rotatable=0;whiteSpace=wrap;html=1;fontStyle=4" parent="H8S7PLvkENnry8t2hhdn-5" vertex="1">
          <mxGeometry y="30" width="140" height="30" as="geometry" />
        </mxCell>
        <mxCell id="H8S7PLvkENnry8t2hhdn-7" value="nom" style="text;strokeColor=none;fillColor=none;align=left;verticalAlign=middle;spacingLeft=4;spacingRight=4;overflow=hidden;points=[[0,0.5],[1,0.5]];portConstraint=eastwest;rotatable=0;whiteSpace=wrap;html=1;" parent="H8S7PLvkENnry8t2hhdn-5" vertex="1">
          <mxGeometry y="60" width="140" height="30" as="geometry" />
        </mxCell>
        <mxCell id="H8S7PLvkENnry8t2hhdn-10" style="edgeStyle=orthogonalEdgeStyle;rounded=0;orthogonalLoop=1;jettySize=auto;html=1;exitX=0;exitY=0.5;exitDx=0;exitDy=0;entryX=0.999;entryY=0.612;entryDx=0;entryDy=0;entryPerimeter=0;" parent="1" source="H8S7PLvkENnry8t2hhdn-6" target="5uqwfvLCXKu4Hqc6w1ec-34" edge="1">
          <mxGeometry relative="1" as="geometry">
            <mxPoint x="400" y="-240" as="targetPoint" />
          </mxGeometry>
        </mxCell>
        <mxCell id="Z-jQogyuRLlV1NRKOcdT-8" style="edgeStyle=orthogonalEdgeStyle;rounded=0;orthogonalLoop=1;jettySize=auto;html=1;exitX=1;exitY=0.5;exitDx=0;exitDy=0;entryX=0;entryY=0.5;entryDx=0;entryDy=0;" edge="1" parent="1" source="Z-jQogyuRLlV1NRKOcdT-2" target="5uqwfvLCXKu4Hqc6w1ec-116">
          <mxGeometry relative="1" as="geometry" />
        </mxCell>
        <mxCell id="Z-jQogyuRLlV1NRKOcdT-2" value="" style="ellipse;whiteSpace=wrap;html=1;" vertex="1" parent="1">
          <mxGeometry x="80" y="620" width="120" height="110" as="geometry" />
        </mxCell>
        <mxCell id="Z-jQogyuRLlV1NRKOcdT-10" style="edgeStyle=orthogonalEdgeStyle;rounded=0;orthogonalLoop=1;jettySize=auto;html=1;exitX=1;exitY=0.5;exitDx=0;exitDy=0;entryX=0;entryY=0.5;entryDx=0;entryDy=0;" edge="1" parent="1" source="Z-jQogyuRLlV1NRKOcdT-3" target="5uqwfvLCXKu4Hqc6w1ec-116">
          <mxGeometry relative="1" as="geometry" />
        </mxCell>
        <mxCell id="Z-jQogyuRLlV1NRKOcdT-3" value="" style="ellipse;whiteSpace=wrap;html=1;" vertex="1" parent="1">
          <mxGeometry x="80" y="830" width="120" height="100" as="geometry" />
        </mxCell>
        <mxCell id="Z-jQogyuRLlV1NRKOcdT-12" style="edgeStyle=orthogonalEdgeStyle;rounded=0;orthogonalLoop=1;jettySize=auto;html=1;exitX=1;exitY=0.5;exitDx=0;exitDy=0;entryX=0;entryY=0.5;entryDx=0;entryDy=0;" edge="1" parent="1" source="Z-jQogyuRLlV1NRKOcdT-4" target="5uqwfvLCXKu4Hqc6w1ec-116">
          <mxGeometry relative="1" as="geometry" />
        </mxCell>
        <mxCell id="Z-jQogyuRLlV1NRKOcdT-4" value="" style="ellipse;whiteSpace=wrap;html=1;" vertex="1" parent="1">
          <mxGeometry x="80" y="1020" width="120" height="100" as="geometry" />
        </mxCell>
        <mxCell id="Z-jQogyuRLlV1NRKOcdT-7" style="edgeStyle=orthogonalEdgeStyle;rounded=0;orthogonalLoop=1;jettySize=auto;html=1;exitX=1;exitY=0.5;exitDx=0;exitDy=0;entryX=0;entryY=0.5;entryDx=0;entryDy=0;" edge="1" parent="1" source="nQhFISSbfg36RetpWJYL-12" target="Z-jQogyuRLlV1NRKOcdT-2">
          <mxGeometry relative="1" as="geometry" />
        </mxCell>
        <mxCell id="Z-jQogyuRLlV1NRKOcdT-9" style="edgeStyle=orthogonalEdgeStyle;rounded=0;orthogonalLoop=1;jettySize=auto;html=1;exitX=1;exitY=0.5;exitDx=0;exitDy=0;entryX=0;entryY=0.5;entryDx=0;entryDy=0;" edge="1" parent="1" source="nQhFISSbfg36RetpWJYL-20" target="Z-jQogyuRLlV1NRKOcdT-3">
          <mxGeometry relative="1" as="geometry" />
        </mxCell>
        <mxCell id="Z-jQogyuRLlV1NRKOcdT-11" style="edgeStyle=orthogonalEdgeStyle;rounded=0;orthogonalLoop=1;jettySize=auto;html=1;exitX=1;exitY=0.5;exitDx=0;exitDy=0;entryX=0;entryY=0.5;entryDx=0;entryDy=0;" edge="1" parent="1" source="nQhFISSbfg36RetpWJYL-30" target="Z-jQogyuRLlV1NRKOcdT-4">
          <mxGeometry relative="1" as="geometry" />
        </mxCell>
        <mxCell id="Z-jQogyuRLlV1NRKOcdT-14" value="Bâtiment" style="text;strokeColor=none;fillColor=none;align=left;verticalAlign=middle;spacingLeft=4;spacingRight=4;overflow=hidden;points=[[0,0.5],[1,0.5]];portConstraint=eastwest;rotatable=0;whiteSpace=wrap;html=1;" vertex="1" parent="1">
          <mxGeometry x="110" y="620" width="80" height="30" as="geometry" />
        </mxCell>
        <mxCell id="Z-jQogyuRLlV1NRKOcdT-19" value="&lt;u&gt;id&lt;/u&gt;&lt;br&gt;idInstallations&lt;br&gt;idPlanete&lt;br&gt;niveau&lt;br&gt;dateFin" style="text;strokeColor=none;fillColor=none;align=left;verticalAlign=middle;spacingLeft=4;spacingRight=4;overflow=hidden;points=[[0,0.5],[1,0.5]];portConstraint=eastwest;rotatable=0;whiteSpace=wrap;html=1;" vertex="1" parent="1">
          <mxGeometry x="105" y="640" width="140" height="90" as="geometry" />
        </mxCell>
        <mxCell id="Z-jQogyuRLlV1NRKOcdT-20" value="" style="endArrow=none;html=1;rounded=0;exitX=0.071;exitY=0.252;exitDx=0;exitDy=0;exitPerimeter=0;entryX=1.032;entryY=0.944;entryDx=0;entryDy=0;entryPerimeter=0;" edge="1" parent="1" source="Z-jQogyuRLlV1NRKOcdT-2" target="Z-jQogyuRLlV1NRKOcdT-14">
          <mxGeometry width="50" height="50" relative="1" as="geometry">
            <mxPoint x="260" y="740" as="sourcePoint" />
            <mxPoint x="190" y="650" as="targetPoint" />
          </mxGeometry>
        </mxCell>
        <mxCell id="Z-jQogyuRLlV1NRKOcdT-22" value="Production" style="text;strokeColor=none;fillColor=none;align=left;verticalAlign=middle;spacingLeft=4;spacingRight=4;overflow=hidden;points=[[0,0.5],[1,0.5]];portConstraint=eastwest;rotatable=0;whiteSpace=wrap;html=1;" vertex="1" parent="1">
          <mxGeometry x="105" y="830" width="80" height="30" as="geometry" />
        </mxCell>
        <mxCell id="Z-jQogyuRLlV1NRKOcdT-23" value="&lt;u&gt;id&lt;/u&gt;&lt;br&gt;idMinier&lt;br&gt;idPlanete&lt;br&gt;niveau&lt;br&gt;DateFin" style="text;strokeColor=none;fillColor=none;align=left;verticalAlign=middle;spacingLeft=4;spacingRight=4;overflow=hidden;points=[[0,0.5],[1,0.5]];portConstraint=eastwest;rotatable=0;whiteSpace=wrap;html=1;" vertex="1" parent="1">
          <mxGeometry x="105" y="850" width="90" height="80" as="geometry" />
        </mxCell>
        <mxCell id="Z-jQogyuRLlV1NRKOcdT-24" value="" style="endArrow=none;html=1;rounded=0;exitX=0.089;exitY=0.223;exitDx=0;exitDy=0;exitPerimeter=0;entryX=0.954;entryY=0.035;entryDx=0;entryDy=0;entryPerimeter=0;" edge="1" parent="1" source="Z-jQogyuRLlV1NRKOcdT-3" target="Z-jQogyuRLlV1NRKOcdT-23">
          <mxGeometry width="50" height="50" relative="1" as="geometry">
            <mxPoint x="88.5" y="850" as="sourcePoint" />
            <mxPoint x="191.5" y="850" as="targetPoint" />
          </mxGeometry>
        </mxCell>
        <mxCell id="Z-jQogyuRLlV1NRKOcdT-28" value="Arme" style="text;strokeColor=none;fillColor=none;align=left;verticalAlign=middle;spacingLeft=4;spacingRight=4;overflow=hidden;points=[[0,0.5],[1,0.5]];portConstraint=eastwest;rotatable=0;whiteSpace=wrap;html=1;" vertex="1" parent="1">
          <mxGeometry x="105" y="1020" width="80" height="30" as="geometry" />
        </mxCell>
        <mxCell id="Z-jQogyuRLlV1NRKOcdT-29" value="" style="endArrow=none;html=1;rounded=0;exitX=0.089;exitY=0.223;exitDx=0;exitDy=0;exitPerimeter=0;entryX=0.954;entryY=0.035;entryDx=0;entryDy=0;entryPerimeter=0;" edge="1" parent="1">
          <mxGeometry width="50" height="50" relative="1" as="geometry">
            <mxPoint x="90" y="1044" as="sourcePoint" />
            <mxPoint x="190" y="1044" as="targetPoint" />
          </mxGeometry>
        </mxCell>
        <mxCell id="Z-jQogyuRLlV1NRKOcdT-30" value="&lt;u&gt;id&lt;/u&gt;&lt;br&gt;idDefense&lt;br&gt;idPlanete&lt;br&gt;niveau&lt;br&gt;dateFin" style="text;strokeColor=none;fillColor=none;align=left;verticalAlign=middle;spacingLeft=4;spacingRight=4;overflow=hidden;points=[[0,0.5],[1,0.5]];portConstraint=eastwest;rotatable=0;whiteSpace=wrap;html=1;" vertex="1" parent="1">
          <mxGeometry x="105" y="1037" width="90" height="86" as="geometry" />
        </mxCell>
      </root>
    </mxGraphModel>
  </diagram>
</mxfile>
